HIERARCHY
ROOT Hips
{
	OFFSET -3.958830 18.904000 13.208200
	CHANNELS 6 Xposition Yposition Zposition Zrotation Yrotation Xrotation 
	JOINT LHipJoint
	{
		OFFSET 0.000000 0.000000 0.000000
		CHANNELS 3 Zrotation Yrotation Xrotation
		JOINT LeftUpLeg
		{
			OFFSET 1.800000 -1.400000 0.085000
			CHANNELS 3 Zrotation Yrotation Xrotation
			JOINT LeftLeg
			{
				OFFSET 2.215000 -6.000000 0.000000
				CHANNELS 3 Zrotation Yrotation Xrotation
				JOINT LeftFoot
				{
					OFFSET 2.500000 -6.900000 0.000000
					CHANNELS 3 Zrotation Yrotation Xrotation
					JOINT LeftToeBase
					{
						OFFSET 0.200000 -0.500000 1.950000
						CHANNELS 3 Zrotation Yrotation Xrotation
						End Site
						{
							OFFSET 0.000000 0.000000 0.000000
						}
					}
				}
			}
		}
	}
	JOINT RHipJoint
	{
		OFFSET 0.000000 0.000000 0.000000
		CHANNELS 3 Zrotation Yrotation Xrotation
		JOINT RightUpLeg
		{
			OFFSET -1.800000 -1.400000 0.085000
			CHANNELS 3 Zrotation Yrotation Xrotation
			JOINT RightLeg
			{
				OFFSET -2.215000 -6.000000 0.000000
				CHANNELS 3 Zrotation Yrotation Xrotation
				JOINT RightFoot
				{
					OFFSET -2.500000 -6.900000 0.000000
					CHANNELS 3 Zrotation Yrotation Xrotation
					JOINT RightToeBase
					{
						OFFSET -0.200000 -0.500000 1.950000
						CHANNELS 3 Zrotation Yrotation Xrotation
						End Site
						{
							OFFSET 0.000000 0.000000 0.000000
						}
					}
				}
			}
		}
	}
	JOINT LowerBack
	{
		OFFSET 0.000000 0.000000 0.000000
		CHANNELS 3 Zrotation Yrotation Xrotation
		JOINT Spine
		{
			OFFSET -0.087000 1.940000 -0.288900
			CHANNELS 3 Zrotation Yrotation Xrotation
			JOINT Spine1
			{
				OFFSET 0.000000 1.950000 0.060000
				CHANNELS 3 Zrotation Yrotation Xrotation
				JOINT Neck
				{
					OFFSET 0.000000 0.000000 0.000000
					CHANNELS 3 Zrotation Yrotation Xrotation
					JOINT Neck1
					{
						OFFSET 0.000000 1.600000 0.340000
						CHANNELS 3 Zrotation Yrotation Xrotation
						JOINT Head
						{
							OFFSET 0.000000 1.667000 -0.240000
							CHANNELS 3 Zrotation Yrotation Xrotation
							End Site
							{
								OFFSET 0.000000 0.000000 0.000000
							}
						}
					}
				}
				JOINT LeftShoulder
				{
					OFFSET 0.000000 0.000000 0.000000
					CHANNELS 3 Zrotation Yrotation Xrotation
					JOINT LeftArm
					{
						OFFSET 2.700000 1.550000 -0.730000
						CHANNELS 3 Zrotation Yrotation Xrotation
						JOINT LeftForeArm
						{
							OFFSET 5.450000 0.000000 0.000000
							CHANNELS 3 Zrotation Yrotation Xrotation
							JOINT LeftHand
							{
								OFFSET 3.450000 0.000000 0.000000
								CHANNELS 3 Zrotation Yrotation Xrotation
								JOINT LeftHandIndex1
								{
									OFFSET 0.750000 0.000000 0.000000
									CHANNELS 3 Zrotation Yrotation Xrotation
									End Site
									{
										OFFSET 0.000000 0.000000 0.000000
									}
								}
							}
						}
					}
				}
				JOINT RightShoulder
				{
					OFFSET 0.000000 0.000000 0.000000
					CHANNELS 3 Zrotation Yrotation Xrotation
					JOINT RightArm
					{
						OFFSET -2.700000 1.550000 -0.730000
						CHANNELS 3 Zrotation Yrotation Xrotation
						JOINT RightForeArm
						{
							OFFSET -5.450000 0.000000 0.000000
							CHANNELS 3 Zrotation Yrotation Xrotation
							JOINT RightHand
							{
								OFFSET -3.450000 0.000000 0.000000
								CHANNELS 3 Zrotation Yrotation Xrotation
								JOINT RightHandIndex1
								{
									OFFSET -0.750000 0.000000 0.000000
									CHANNELS 3 Zrotation Yrotation Xrotation
									End Site
									{
										OFFSET 0.000000 0.000000 0.000000
									}
								}
							}
						}
					}
				}
			}
		}
	}
}
MOTION
Frames: 12
Frame Time: 0.016667
-0.180180 16.991170 -0.616460 -3.617127 -11.902322 2.710709 -14.814180 13.137147 2.804176 6.074203 -1.359374 -9.601163 -9.101027 6.045712 11.980383 -0.064456 3.794759 3.147891 0.782490 0.497220 0.868950 18.571087 -11.290408 2.750252 -1.894948 0.181209 -11.714535 8.286891 -5.886402 15.155200 -0.479254 -3.350644 3.119676 0.131670 -0.360370 0.251990 -4.354520 -0.689465 -7.006586 12.023365 -0.341665 5.456330 -7.280550 0.455818 9.150220 3.541348 0.488414 -9.885482 -6.459140 -3.724991 66.487303 -4.150690 -3.587070 -2.604240 -8.848209 -3.470476 2.289800 -63.085355 -21.430019 5.918064 -29.509221 -33.687319 7.542083 -3.326009 3.285141 0.454130 -0.218770 0.387140 0.101350 2.210575 2.810270 5.574979 75.531451 1.951362 -8.053958 8.890359 15.108203 -0.656702 2.610787 -1.391555 0.214490 -0.126910 -0.436670 -0.167760 
-0.180430 16.993590 -0.611960 -3.647563 -11.906755 2.741785 -14.830547 13.206111 2.814770 6.103713 -1.365822 -9.677497 -9.125332 6.082345 12.049491 -0.066854 3.836439 3.140703 0.772060 0.479100 0.858350 18.558761 -11.212222 2.733417 -1.865153 0.183962 -11.642098 8.270500 -5.872270 15.145675 -0.469820 -3.340802 3.127171 0.127010 -0.343210 0.250420 -4.317350 -0.961463 -6.995001 12.103834 -0.611485 5.512178 -7.590873 0.294670 9.178473 3.232177 -0.853847 -9.856866 -10.199877 -1.456840 65.813118 -4.452300 -3.070190 -2.559180 -8.566472 -2.977520 2.173241 -63.261164 -21.969949 6.455157 -29.443940 -34.318869 7.690695 -3.329860 3.284336 0.455510 -0.212720 0.374250 0.102690 2.371881 3.148941 5.558053 75.355948 1.977635 -8.138495 8.843850 15.097987 -0.663509 2.610333 -1.387202 0.202800 -0.117620 -0.425750 -0.167810 
-0.181250 16.996460 -0.607370 -3.651723 -11.888904 2.785748 -14.852335 13.266798 2.825081 6.153253 -1.377909 -9.772332 -9.228805 6.138414 12.119424 -0.071140 3.888010 3.129450 0.760460 0.460670 0.849860 18.542869 -11.129429 2.716155 -1.892675 0.181992 -11.535525 8.360169 -5.871132 15.036960 -0.462384 -3.334486 3.131187 0.123420 -0.326340 0.248820 -4.267944 -1.227470 -6.979652 12.070685 -0.857367 5.569002 -7.848546 0.144118 9.148451 2.940959 -2.107395 -9.831844 -13.668424 0.630399 64.687211 -4.783870 -2.477720 -2.704880 -8.278286 -2.423441 2.055144 -63.466356 -22.455063 6.985383 -29.375598 -34.878920 7.818057 -3.336129 3.280236 0.458650 -0.206600 0.362660 0.101510 2.505579 3.366656 5.513943 75.167836 2.004646 -8.178867 8.907160 15.003791 -0.656871 2.610006 -1.379674 0.188910 -0.106130 -0.413330 -0.169550 
-0.184070 16.998100 -0.601690 -3.567969 -11.917691 2.865185 -14.881664 13.326539 2.834305 6.088599 -1.383413 -9.876960 -9.247760 6.160403 12.132327 -0.081754 3.920444 3.122637 0.745250 0.438520 0.843790 18.520280 -11.047949 2.696663 -1.971189 0.192724 -11.493895 8.455397 -5.867179 14.942207 -0.450702 -3.325587 3.131487 0.118980 -0.313170 0.245280 -4.197059 -1.488553 -6.958362 11.813334 -1.027737 5.592372 -8.039289 0.055957 9.072947 2.665161 -3.255585 -9.800423 -16.828240 2.440001 63.063794 -5.213750 -1.855020 -2.953480 -7.961645 -1.800698 1.923900 -63.689672 -22.899293 7.515402 -29.307064 -35.294032 7.916178 -3.344638 3.276119 0.460940 -0.201060 0.348830 0.092880 2.598592 3.459242 5.463165 75.059709 1.950590 -8.284522 9.026261 14.985748 -0.654842 2.609844 -1.371792 0.173430 -0.097410 -0.397640 -0.174830 
-0.185350 16.998520 -0.594830 -3.576653 -11.948176 2.980444 -14.905230 13.388257 2.834334 6.050132 -1.390632 -10.009101 -9.132269 6.159544 12.195801 -0.097869 3.952924 3.120387 0.724520 0.403620 0.834680 18.503512 -10.971024 2.680650 -1.966332 0.223126 -11.501796 8.536727 -5.875872 14.939160 -0.435564 -3.322777 3.132541 0.109320 -0.290180 0.245600 -4.143125 -1.738181 -6.929604 11.731238 -1.190521 5.596047 -8.248253 -0.030379 8.935651 2.379322 -4.375044 -9.820053 -19.861561 4.124094 61.077499 -5.585800 -1.250330 -3.028580 -7.677174 -1.253889 1.830714 -63.958132 -23.297166 8.034719 -29.152780 -35.607257 7.944016 -3.361035 3.270092 0.463750 -0.189100 0.328840 0.085450 2.736058 3.583862 5.450048 74.828797 1.816166 -8.428687 9.161925 15.049874 -0.649857 2.605752 -1.364339 0.153340 -0.087720 -0.377720 -0.180930 
-0.185860 16.997960 -0.586380 -3.571284 -11.982000 3.111125 -14.929434 13.448062 2.833679 5.992369 -1.393535 -10.139483 -9.043688 6.167032 12.247088 -0.118754 3.992293 3.116529 0.690200 0.358740 0.811010 18.487839 -10.891679 2.660282 -1.980252 0.250601 -11.513753 8.603798 -5.884019 14.939869 -0.413220 -3.323127 3.133520 0.097440 -0.256870 0.240090 -4.090799 -1.990839 -6.891407 11.660929 -1.354603 5.571168 -8.452249 -0.125130 8.733379 2.055590 -5.488498 -9.866394 -22.869733 5.814360 58.799775 -5.809530 -0.601780 -2.989030 -7.289064 -0.622661 1.761230 -64.437151 -23.675469 8.624997 -28.895685 -35.755039 7.893829 -3.384873 3.258741 0.464030 -0.172100 0.299400 0.073910 2.849507 3.594995 5.416738 74.565339 1.641267 -8.559424 9.351551 15.086003 -0.637585 2.599993 -1.350735 0.125160 -0.072220 -0.346740 -0.185880 
-0.186150 16.998380 -0.577270 -3.526085 -12.003721 3.216503 -14.956641 13.509489 2.832552 5.888552 -1.375595 -10.192138 -8.901868 6.142507 12.179493 -0.135982 4.017377 3.118646 0.654980 0.317670 0.778860 18.469366 -10.812969 2.638519 -2.046124 0.266296 -11.487880 8.692181 -5.894226 14.904188 -0.391123 -3.327819 3.137605 0.087850 -0.220430 0.234330 -4.029735 -2.246032 -6.852420 11.493650 -1.494744 5.562773 -8.533772 -0.206868 8.475036 1.698586 -6.493420 -9.972877 -25.653941 7.451167 56.425868 -5.856810 0.110300 -2.872180 -6.999384 -0.098238 1.748751 -64.795821 -23.933863 9.111294 -28.702595 -35.954853 7.867251 -3.407951 3.250172 0.461090 -0.153260 0.271010 0.068850 3.161047 3.625145 5.409646 74.099337 1.329956 -8.769424 9.475479 15.275417 -0.631789 2.593177 -1.336476 0.097720 -0.055710 -0.317550 -0.186250 
-0.187650 16.998680 -0.568990 -3.435849 -12.039064 3.357837 -14.989163 13.562560 2.835319 5.782921 -1.369427 -10.270564 -8.860274 6.137776 12.076668 -0.153596 4.050002 3.118923 0.619000 0.272060 0.752220 18.447018 -10.731677 2.614859 -2.125948 0.293624 -11.502741 8.762032 -5.885575 14.819472 -0.362436 -3.328315 3.145467 0.076430 -0.183000 0.226050 -3.955328 -2.493173 -6.812553 11.168140 -1.595798 5.484467 -8.509225 -0.265501 8.224103 1.343135 -7.319776 -10.071279 -27.926047 8.910793 53.906055 -5.923490 1.024620 -2.577580 -6.677840 0.399125 1.785929 -65.188465 -24.134426 9.550387 -28.442237 -36.250309 7.827116 -3.434486 3.244837 0.454760 -0.130110 0.235150 0.059720 3.470812 3.552982 5.361882 73.620282 1.043454 -8.913119 9.602583 15.390989 -0.628696 2.586417 -1.325685 0.067910 -0.042750 -0.288470 -0.191540 
-0.188560 16.998360 -0.560500 -3.347991 -12.064428 3.568360 -15.019350 13.604769 2.839184 5.688339 -1.378732 -10.418938 -8.895376 6.149241 11.993731 -0.155165 4.084305 3.122319 0.585990 0.231250 0.725460 18.427426 -10.657131 2.589136 -2.196615 0.334727 -11.603123 8.785073 -5.868827 14.794306 -0.333509 -3.332438 3.152050 0.063600 -0.140690 0.227320 -3.888648 -2.711210 -6.768917 10.865740 -1.654720 5.337424 -8.458998 -0.303838 7.925968 0.984291 -8.020179 -10.087624 -29.703737 10.117289 51.135286 -6.016400 2.027510 -2.040640 -6.447889 0.992536 1.790415 -65.645157 -24.318554 10.038221 -28.135918 -36.443852 7.775822 -3.466855 3.251952 0.435020 -0.099320 0.199260 0.057450 3.878639 3.282653 5.242753 73.028769 0.711512 -8.991108 9.714552 15.431448 -0.630478 2.585476 -1.326166 0.048050 -0.038790 -0.266640 -0.189510 
-0.186660 16.999410 -0.550560 -3.314710 -12.031043 3.816081 -15.045425 13.642097 2.837545 5.592841 -1.383403 -10.585729 -8.877437 6.150798 11.920365 -0.156270 4.111010 3.126928 0.542110 0.187300 0.687900 18.412668 -10.586732 2.566183 -2.241597 0.372032 -11.705470 8.786567 -5.833330 14.691277 -0.300640 -3.332480 3.159751 0.050850 -0.094660 0.226030 -3.835930 -2.910023 -6.721722 10.695380 -1.727257 5.149606 -8.448990 -0.364733 7.617894 0.672402 -8.600620 -10.083048 -31.063430 11.264416 48.312179 -6.172760 3.247890 -1.417330 -6.382540 1.521128 1.789450 -66.060054 -24.411830 10.452861 -27.771899 -36.544681 7.685772 -3.508097 3.255807 0.407770 -0.063760 0.161340 0.053790 4.362149 2.952739 5.108703 72.363182 0.341053 -9.072575 9.732163 15.501301 -0.639964 2.585432 -1.323634 0.025820 -0.032950 -0.239450 -0.185030 
-0.184430 16.998440 -0.541650 -3.252775 -12.059828 4.104899 -15.074977 13.678966 2.839423 5.471490 -1.401763 -10.825678 -8.877184 6.153690 11.879170 -0.150260 4.134332 3.133239 0.505370 0.148950 0.656100 18.393508 -10.517098 2.543796 -2.293728 0.430763 -11.886548 8.763775 -5.789404 14.616676 -0.269802 -3.333673 3.163183 0.037650 -0.050110 0.236150 -3.770407 -3.106404 -6.678112 10.428412 -1.709339 4.939027 -8.323517 -0.336089 7.339896 0.381209 -9.092843 -10.093429 -32.079239 12.270711 45.369689 -6.449100 4.606270 -0.690440 -6.244046 1.999718 1.812290 -66.577256 -24.579116 10.927760 -27.420206 -36.631397 7.593492 -3.550263 3.275593 0.375340 -0.023950 0.126100 0.053520 4.756883 2.641385 5.006936 71.614350 -0.103859 -9.181380 9.981835 15.635718 -0.635970 2.584583 -1.337779 0.012740 -0.039650 -0.219030 -0.178700 
-0.180500 16.999550 -0.533060 -3.248654 -11.998760 4.329550 -15.100152 13.715922 2.838008 5.395801 -1.420188 -11.047028 -8.856289 6.167774 11.928011 -0.147974 4.155451 3.136784 0.478610 0.123690 0.626860 18.377593 -10.450938 2.527595 -2.320498 0.474170 -11.977725 8.784403 -5.748851 14.476016 -0.246480 -3.335306 3.169085 0.032220 -0.013880 0.239940 -3.715888 -3.294088 -6.642066 10.255485 -1.712981 4.802841 -8.196259 -0.314230 7.094699 0.131723 -9.474499 -10.209972 -32.966706 13.459915 42.704494 -6.529860 6.070470 -0.133120 -6.182766 2.209511 1.927382 -66.971305 -24.632183 11.179130 -27.017966 -36.933470 7.479799 -3.581029 3.296744 0.350140 0.008060 0.095670 0.057420 5.181803 2.497295 4.974028 70.812695 -0.591750 -9.352528 10.223932 15.879102 -0.630914 2.577955 -1.353251 -0.000920 -0.043710 -0.204020 -0.175490 
